# xmcd
#
# Track frame offsets:
# 150
# 14817
# 32401
# 48482
# 67054
# 80277
# 92876
# 107665
# 123589
# 142085
#
# Disc length: 2150 seconds
#
#
# Revision: 0
# Processed by: cddbd v1.5PL3 Copyright (c) Steve Scherf et al.
# Submitted via: FreeRIP 2.60 
#
DISCID=8c08640a
DTITLE=Various Artist - PBR Buck and Roll Volume One
DYEAR=2004
DGENRE=Rock
TTITLE0=Stomp
TTITLE1=Vegas
TTITLE2=Stop till I Drop
TTITLE3=If I can Just Hold On
TTITLE4=Faster, Faster
TTITLE5=If the Bulls don't kill me
TTITLE6=Cowboy to the Core
TTITLE7=Make it Eight
TTITLE8=And the Crowd goes Wild
TTITLE9=Keep me Alive
EXTD=
EXTT0=
EXTT1=
EXTT2=
EXTT3=
EXTT4=
EXTT5=
EXTT6=
EXTT7=
EXTT8=
EXTT9=
PLAYORDER=
